<?xml version="1.0" encoding="UTF-8" standalone="no"?>
<!-- Created with Inkscape (http://www.inkscape.org/) -->

<svg
   xmlns:dc="http://purl.org/dc/elements/1.1/"
   xmlns:cc="http://creativecommons.org/ns#"
   xmlns:rdf="http://www.w3.org/1999/02/22-rdf-syntax-ns#"
   xmlns:svg="http://www.w3.org/2000/svg"
   xmlns="http://www.w3.org/2000/svg"
   xmlns:sodipodi="http://sodipodi.sourceforge.net/DTD/sodipodi-0.dtd"
   xmlns:inkscape="http://www.inkscape.org/namespaces/inkscape"
   width="128"
   height="128"
   id="svg2"
   version="1.1"
   inkscape:version="0.48.5 r10040"
   sodipodi:docname="Neues Dokument 1">
  <defs
     id="defs4" />
  <sodipodi:namedview
     id="base"
     pagecolor="#ffffff"
     bordercolor="#666666"
     borderopacity="1.0"
     inkscape:pageopacity="0.0"
     inkscape:pageshadow="2"
     inkscape:zoom="2.8284271"
     inkscape:cx="96.55002"
     inkscape:cy="60.708657"
     inkscape:document-units="px"
     inkscape:current-layer="layer1"
     showgrid="false"
     inkscape:window-width="1699"
     inkscape:window-height="1336"
     inkscape:window-x="219"
     inkscape:window-y="214"
     inkscape:window-maximized="0" />
  <metadata
     id="metadata7">
    <rdf:RDF>
      <cc:Work
         rdf:about="">
        <dc:format>image/svg+xml</dc:format>
        <dc:type
           rdf:resource="http://purl.org/dc/dcmitype/StillImage" />
        <dc:title></dc:title>
      </cc:Work>
    </rdf:RDF>
  </metadata>
  <g
     inkscape:label="Ebene 1"
     inkscape:groupmode="layer"
     id="layer1"
     transform="translate(0,-924.3622)">
    <path
       style="fill:#000000"
       d="m -30.041081,1048.9945 c -0.246652,-0.1586 -0.333339,-0.2541 -0.477457,-0.5263 -0.139577,-0.2637 -0.173049,-0.7375 -0.0615,-0.8705 0.05136,-0.061 0.04381,-0.1256 -0.03528,-0.3007 -0.05534,-0.1226 -0.120648,-0.2229 -0.145117,-0.2229 -0.06923,0 -0.206908,-0.4412 -0.206908,-0.6631 0,-0.3924 0.169692,-0.7149 0.683131,-1.2982 1.15311,-1.31 1.559977,-1.8162 1.835606,-2.2833 0.04248,-0.071 0.114918,-0.1797 0.160978,-0.2394 0.230616,-0.2988 0.969129,-1.4925 0.969129,-1.5665 0,-0.051 0.07563,-0.1581 0.339216,-0.4797 0.31622,-0.3857 0.853545,-0.3049 1.060102,0.1594 0.09504,0.2136 0.111171,0.3228 0.0814,0.551 -0.04664,0.3578 -0.136181,0.4848 -0.555379,0.7877 -0.184611,0.1334 -0.363084,0.3052 -0.396605,0.3817 -0.03353,0.076 -0.222027,0.4271 -0.418898,0.7791 -0.459738,0.8218 -0.914732,1.7254 -0.914732,1.8166 0,0.039 -0.02415,0.071 -0.05366,0.071 -0.02952,0 -0.05366,0.039 -0.05366,0.089 0,0.048 -0.03585,0.1235 -0.07966,0.1669 -0.04382,0.044 -0.13063,0.2125 -0.19292,0.3758 -0.06229,0.1633 -0.147177,0.3785 -0.188634,0.4781 -0.04146,0.099 -0.07537,0.2388 -0.07537,0.3092 0,0.1196 0.02554,0.1256 0.389031,0.091 0.213968,-0.02 0.485619,-0.051 0.60367,-0.068 0.11805,-0.017 0.383665,-0.033 0.590254,-0.036 0.206589,0 0.472203,-0.033 0.590255,-0.069 0.11805,-0.036 0.347444,-0.1049 0.509764,-0.153 0.613991,-0.1821 0.78118,-0.2366 0.885381,-0.2887 0.217371,-0.1083 0.705783,-0.2489 0.9927,-0.285 0.263208,-0.033 0.74076,-0.1951 0.885382,-0.3002 0.02952,-0.022 0.138174,-0.059 0.241468,-0.082 0.103289,-0.024 0.236101,-0.068 0.295127,-0.099 0.05902,-0.031 0.196857,-0.073 0.306292,-0.094 0.137585,-0.026 0.245652,-0.106 0.350273,-0.2579 0.182978,-0.2648 0.466807,-0.4162 0.779786,-0.4162 0.26832,0 0.361242,-0.084 0.361242,-0.3255 0,-0.3332 0.337023,-0.8442 0.610714,-0.9261 0.07784,-0.023 0.154803,-0.068 0.171022,-0.099 0.03857,-0.075 0.267689,-0.073 0.386086,0 0.124033,0.08 0.577459,0.2353 0.844408,0.2911 0.118051,0.024 0.238784,0.068 0.268298,0.097 0.07844,0.076 0.935417,0.2753 1.539737,0.3572 0.745961,0.1014 1.632885,0.012 2.457894,-0.2622 0.250858,-0.082 0.600986,-0.1689 0.778061,-0.1936 0.19902,-0.028 0.51661,-0.1501 0.831722,-0.3201 0.280371,-0.1515 0.642573,-0.325 0.804893,-0.3859 0.162319,-0.061 0.319274,-0.1316 0.348787,-0.1573 0.124318,-0.1083 0.690853,-0.4457 0.747925,-0.4457 0.07105,0 0.790137,-0.4303 0.833326,-0.4987 0.03524,-0.055 0.189182,-0.1691 0.414325,-0.3048 0.09414,-0.056 0.382826,-0.3602 0.641534,-0.6741 0.258708,-0.314 0.568037,-0.6489 0.687396,-0.7441 0.205432,-0.164 0.525332,-0.526 0.842556,-0.9536 0.23194,-0.3125 0.63546,-1.1478 0.63546,-1.3154 0,-0.085 0.02229,-0.1823 0.04953,-0.2157 0.04807,-0.059 0.115044,-0.3911 0.225234,-1.1167 0.0294,-0.1936 0.07618,-0.4404 0.10398,-0.5485 0.06688,-0.2601 0.06476,-0.9053 -0.0031,-0.9553 -0.02952,-0.022 -0.05366,-0.097 -0.05366,-0.1672 0,-0.1303 -0.119682,-0.4543 -0.343704,-0.9308 -0.06883,-0.1464 -0.141862,-0.3455 -0.162287,-0.4426 -0.02042,-0.097 -0.204694,-0.5028 -0.409486,-0.9018 -0.204794,-0.3989 -0.372351,-0.7413 -0.372351,-0.7607 0,-0.063 -0.227191,-0.6352 -0.265264,-0.6683 -0.03089,-0.026 -0.488619,-0.8925 -0.674851,-1.2764 -0.0301,-0.062 -0.229314,-0.3379 -0.442689,-0.6132 -0.213377,-0.2751 -0.387958,-0.524 -0.387958,-0.5531 0,-0.029 -0.02587,-0.053 -0.05749,-0.053 -0.03163,0 -0.0903,-0.036 -0.130396,-0.08 -0.0401,-0.044 -0.194955,-0.1808 -0.344126,-0.304 -0.149171,-0.1232 -0.285123,-0.2738 -0.302115,-0.3345 -0.01699,-0.061 -0.156208,-0.185 -0.30937,-0.276 -0.153163,-0.091 -0.367612,-0.25 -0.476553,-0.3534 -0.108937,-0.1037 -0.221628,-0.188 -0.250412,-0.188 -0.02878,0 -0.06038,-0.022 -0.07022,-0.048 -0.02171,-0.059 -0.867309,-0.7198 -0.920055,-0.7198 -0.02057,0 -0.159009,-0.07 -0.307643,-0.1555 -0.148636,-0.085 -0.347728,-0.1752 -0.442428,-0.1994 -0.0947,-0.024 -0.196328,-0.067 -0.225842,-0.094 -0.02952,-0.028 -0.222686,-0.07 -0.429275,-0.095 -0.206589,-0.024 -0.448056,-0.069 -0.536595,-0.1003 -0.08854,-0.031 -0.402446,-0.116 -0.697572,-0.1892 -0.295128,-0.074 -0.62111,-0.1591 -0.724403,-0.1905 -0.293096,-0.09 -4.051534,-0.1477 -4.400078,-0.068 -0.162319,0.037 -0.448159,0.097 -0.635199,0.1318 -0.485882,0.092 -0.824139,0.2347 -1.394312,0.5876 l -0.500218,0.3095 -0.2376,-0.1252 c -0.221435,-0.1169 -0.237603,-0.1421 -0.237603,-0.3707 0,-0.1349 0.03341,-0.3022 0.07425,-0.3716 0.07907,-0.1345 0.918584,-0.6557 1.320906,-0.8203 0.132807,-0.054 0.495009,-0.1581 0.804892,-0.2309 0.309884,-0.073 0.672085,-0.1611 0.804892,-0.1965 0.135277,-0.036 1.14999,-0.068 2.307358,-0.074 1.941422,-0.012 2.098219,0 2.602485,0.1305 0.545446,0.1423 0.711744,0.1759 1.786452,0.3622 0.333269,0.058 0.671324,0.1455 0.751233,0.1953 0.0799,0.05 0.198193,0.091 0.262856,0.091 0.06466,10e-5 0.13249,0.029 0.15073,0.064 0.01824,0.035 0.06928,0.063 0.11343,0.063 0.108925,0 0.52587,0.2266 0.852441,0.4633 0.331969,0.2407 1.010063,0.772 1.04636,0.8199 0.01475,0.02 0.13242,0.1003 0.261475,0.1791 0.129054,0.078 0.354292,0.2789 0.500528,0.4444 0.146235,0.1655 0.328811,0.3442 0.405721,0.3969 0.308726,0.2119 0.817516,0.7994 0.817755,0.9444 4.4e-5,0.026 0.120778,0.1887 0.268297,0.3613 0.147522,0.1727 0.268219,0.3527 0.268219,0.4 0,0.047 0.02415,0.086 0.05366,0.086 0.02952,0 0.05366,0.026 0.05366,0.059 0,0.032 0.08451,0.2115 0.187809,0.3985 0.1033,0.1871 0.187807,0.3657 0.187807,0.3972 0,0.031 0.0816,0.2192 0.18132,0.4173 0.09973,0.1982 0.213615,0.4755 0.253084,0.6164 0.03947,0.1407 0.243079,0.5871 0.452463,0.9918 0.209386,0.4047 0.423673,0.8653 0.476191,1.0236 0.05252,0.1583 0.111414,0.3023 0.130862,0.32 0.151346,0.1376 0.424059,0.8967 0.523551,1.457 0.07972,0.4491 0.08507,0.6135 0.03541,1.0879 -0.09989,0.954 -0.281166,1.852 -0.42241,2.0924 -0.04089,0.069 -0.07435,0.1754 -0.07435,0.235 0,0.1977 -0.198555,0.665 -0.409312,0.9634 -0.114272,0.1618 -0.268141,0.3899 -0.341922,0.507 -0.265715,0.4215 -0.879089,1.1504 -1.227504,1.4588 -0.297932,0.2637 -0.528845,0.5365 -0.892044,1.0539 -0.06836,0.097 -0.602678,0.4873 -0.667717,0.4873 -0.02696,0 -0.08093,0.037 -0.119928,0.083 -0.09879,0.1152 -1.037461,0.6854 -1.127906,0.6854 -0.04074,0 -0.230085,0.097 -0.420754,0.2138 -0.190667,0.1175 -0.527769,0.2944 -0.749115,0.3929 -0.221346,0.098 -0.440568,0.2183 -0.487159,0.2661 -0.0466,0.048 -0.111276,0.088 -0.143732,0.088 -0.03246,0 -0.09307,0.04 -0.134673,0.09 -0.08793,0.1049 -0.743326,0.3577 -0.927194,0.3577 -0.06893,0 -0.138293,0.025 -0.154138,0.055 -0.01585,0.03 -0.129663,0.075 -0.252931,0.098 -0.123267,0.023 -0.250573,0.063 -0.282902,0.088 -0.127306,0.098 -0.998496,0.3604 -1.534412,0.4623 -0.494586,0.094 -0.897054,0.1287 -1.904912,0.1643 -0.531229,0.019 -1.086605,0.065 -1.234167,0.1026 -0.147564,0.038 -0.352812,0.068 -0.456106,0.068 -0.204571,0 -0.71797,-0.1462 -0.782571,-0.2231 -0.106792,-0.1274 -0.245078,-0.036 -0.339406,0.2239 -0.05425,0.1496 -0.176848,0.3543 -0.272442,0.4549 -0.16602,0.1747 -0.199369,0.1834 -0.744595,0.1944 -0.313935,0.012 -0.655303,0.045 -0.758599,0.085 -0.103289,0.04 -0.356835,0.1367 -0.563424,0.2132 -0.206588,0.076 -0.399762,0.1614 -0.429276,0.1883 -0.02952,0.027 -0.162319,0.069 -0.295126,0.095 -0.499817,0.094 -1.728179,0.5469 -1.84857,0.6801 -0.02804,0.031 -0.08841,0.056 -0.134149,0.056 -0.04574,0 -0.147949,0.04 -0.227121,0.09 -0.07917,0.05 -0.22326,0.1107 -0.320196,0.1358 -0.09694,0.025 -0.213258,0.069 -0.258497,0.098 -0.04524,0.029 -0.307116,0.1117 -0.58195,0.1857 -0.274836,0.074 -0.540451,0.1602 -0.590255,0.1919 -0.0498,0.031 -0.259582,0.1477 -0.46617,0.2577 -0.20659,0.1095 -0.448056,0.2416 -0.536595,0.2922 -0.08854,0.051 -0.239958,0.1106 -0.336488,0.1324 -0.09653,0.022 -0.188506,0.066 -0.20439,0.096 -0.05041,0.097 -0.629996,0.046 -0.813386,-0.072 z m 0.579087,-6.6908 c -0.160731,-0.046 -0.341832,-0.1118 -0.402446,-0.1453 -0.582337,-0.3209 -0.843325,-0.4784 -0.900755,-0.5437 -0.141385,-0.1609 -0.782319,-0.7476 -0.81658,-0.7476 -0.01968,0 -0.136993,-0.1118 -0.260688,-0.2495 -0.123697,-0.1372 -0.345635,-0.3635 -0.493199,-0.5031 -0.147564,-0.1395 -0.336331,-0.3655 -0.419484,-0.5024 -0.238008,-0.3917 -0.809774,-1.4624 -0.924844,-1.7319 -0.05747,-0.1345 -0.120674,-0.2593 -0.140468,-0.2773 -0.01979,-0.017 -0.0526,-0.1118 -0.07288,-0.2079 -0.0203,-0.097 -0.05651,-0.1754 -0.08048,-0.1754 -0.02397,0 -0.05911,-0.084 -0.07808,-0.1873 -0.01898,-0.1026 -0.126268,-0.4126 -0.238421,-0.6879 -0.357954,-0.8787 -0.469906,-1.8987 -0.300754,-2.7403 0.153726,-0.7648 0.525656,-1.3675 1.263322,-2.0476 0.267244,-0.2463 0.672233,-0.674 0.89998,-0.9503 0.227745,-0.2762 0.643476,-0.7366 0.923847,-1.0228 0.280371,-0.2863 0.521838,-0.5368 0.536594,-0.5566 0.127804,-0.1718 1.10392,-0.8291 1.529296,-1.0297 0.650766,-0.307 0.832706,-0.3529 1.08221,-0.273 0.239305,0.076 0.292783,0.65 0.08184,0.8777 -0.04997,0.054 -0.271963,0.1774 -0.493309,0.2745 -0.539709,0.2366 -1.248613,0.6781 -1.609783,1.0026 -0.285066,0.256 -1.111826,1.2104 -1.619566,1.8696 -0.135553,0.176 -0.388017,0.4599 -0.56103,0.6311 -0.403073,0.3986 -0.724799,0.8484 -0.88497,1.2372 -0.104476,0.2536 -0.12666,0.408 -0.126891,0.8833 -1.66e-4,0.343 0.02993,0.6664 0.07444,0.7999 0.112555,0.3373 0.296512,0.7957 0.333855,0.8318 0.01819,0.017 0.05031,0.1038 0.07139,0.1919 0.106182,0.4433 0.465598,1.1728 0.960802,1.9504 0.358541,0.5631 0.454353,0.6743 0.728975,0.846 0.101387,0.063 0.226358,0.1634 0.277707,0.2224 0.05134,0.059 0.352384,0.2566 0.668965,0.4391 0.462007,0.2665 0.656058,0.3423 0.983288,0.3846 0.970799,0.1255 1.268434,0.2864 1.456307,0.7869 0.09092,0.2421 0.09168,0.5945 0.0015,0.6819 -0.01817,0.017 -0.0735,0.1083 -0.122929,0.2007 -0.09678,0.1815 -0.45187,0.4088 -0.712529,0.4559 -0.08854,0.016 -0.1972,0.045 -0.241468,0.063 -0.04427,0.018 -0.211998,0 -0.37273,-0.051 z m 4.822339,-1.9436 c -0.203786,-0.2431 -0.206786,-0.5181 -0.0094,-0.8654 0.08108,-0.1426 0.162497,-0.2738 0.180934,-0.2914 0.01844,-0.017 0.145275,-0.1887 0.281863,-0.3801 l 0.248341,-0.3481 0,-0.6096 c 0,-0.6502 -0.08179,-1.0318 -0.296226,-1.3818 -0.06469,-0.106 -0.134617,-0.2561 -0.155408,-0.3346 -0.02079,-0.078 -0.295917,-0.4537 -0.61139,-0.8339 -0.709536,-0.8553 -0.794608,-0.8935 -2.066164,-0.9269 l -0.84866,-0.022 -0.03023,0.1804 c -0.01663,0.099 -0.05126,0.1957 -0.07696,0.2147 -0.07798,0.058 -0.05232,0.7183 0.04111,1.0589 0.121371,0.4425 0.231818,0.5126 0.804128,0.51 l 0.470737,0 0.19526,-0.242 c 0.29598,-0.367 0.476182,-0.5274 0.512933,-0.4564 0.01798,0.035 0.06799,0.047 0.111137,0.028 0.09008,-0.042 0.341208,0.099 0.445157,0.248 0.109789,0.1578 0.165174,0.6157 0.102851,0.8503 -0.124299,0.4682 -0.800527,1.0196 -1.415387,1.1543 -0.351531,0.077 -0.949016,0.061 -1.28887,-0.034 -0.281056,-0.078 -0.645652,-0.3553 -0.89907,-0.6826 -0.189652,-0.245 -0.512865,-0.9569 -0.598105,-1.3176 -0.0208,-0.088 -0.05887,-0.2174 -0.0846,-0.2879 -0.118256,-0.3236 -0.246779,-1.6645 -0.165291,-1.7246 0.03181,-0.023 0.05782,-0.086 0.05782,-0.139 0,-0.2864 0.469301,-1.1759 0.620395,-1.1759 0.03753,0 0.07709,-0.031 0.08791,-0.07 0.0315,-0.1129 0.659545,-0.088 0.802782,0.032 0.154425,0.1289 0.252367,0.1288 0.470092,0 0.23176,-0.1379 1.186402,-0.098 1.426196,0.06 0.08854,0.059 0.1972,0.1072 0.241469,0.1083 0.04427,0 0.12736,0.045 0.184649,0.097 0.127231,0.1153 0.352069,0.1237 0.351615,0.014 -1.66e-4,-0.044 -0.03476,-0.1587 -0.07684,-0.255 -0.04208,-0.096 -0.05506,-0.1906 -0.02885,-0.2099 0.02622,-0.02 0.03371,-0.078 0.01666,-0.1315 -0.04036,-0.1254 0.12543,-0.6442 0.287732,-0.9004 0.149317,-0.2357 0.509561,-0.5345 0.645604,-0.5357 0.05228,0 0.232688,-0.084 0.400907,-0.1859 0.168218,-0.1014 0.403523,-0.2047 0.522899,-0.2286 0.119376,-0.024 0.229373,-0.068 0.244439,-0.097 0.01506,-0.029 0.12783,-0.073 0.250588,-0.098 0.122759,-0.025 0.323641,-0.1084 0.446407,-0.1865 0.291408,-0.1849 0.732874,-0.3554 0.922871,-0.3566 0.08299,0 0.247484,-0.043 0.365534,-0.093 0.267746,-0.1153 2.138273,-0.1337 2.626084,-0.027 0.48589,0.1072 1.168303,0.3687 1.282165,0.4917 0.269484,0.2908 0.332472,0.8095 0.129626,1.0676 -0.276368,0.3516 -0.604154,0.3703 -1.136671,0.064 -0.379799,-0.2178 -0.408157,-0.2239 -1.037697,-0.2239 -0.701399,0 -0.714996,0.012 -0.670073,0.3585 0.01854,0.1451 -0.0268,0.316 -0.168211,0.6337 -0.192798,0.4332 -0.19351,0.4378 -0.170545,1.0929 0.01269,0.3618 0.04868,0.7149 0.08,0.7847 0.03131,0.069 0.107057,0.4946 0.168336,0.9442 0.06128,0.4496 0.132577,0.8646 0.158451,0.9223 0.02587,0.058 0.06371,0.261 0.08409,0.4519 0.02038,0.1908 0.05458,0.3757 0.07602,0.411 0.02144,0.036 0.05466,0.1625 0.07384,0.2829 0.01919,0.1203 0.131242,0.3711 0.249019,0.5571 0.117777,0.1861 0.21414,0.3555 0.21414,0.3766 0,0.033 0.07318,0.2425 0.268035,0.7671 0.09018,0.2427 0.159211,0.7959 0.125479,1.0056 -0.0339,0.2106 -0.175639,0.4943 -0.352251,0.7048 -0.121742,0.1452 -0.520523,0.2513 -0.748553,0.1991 -0.298318,-0.068 -0.643459,-0.3903 -0.714689,-0.6666 -0.02198,-0.085 -0.059,-0.184 -0.08226,-0.2191 -0.02326,-0.036 -0.0597,-0.1793 -0.08096,-0.32 -0.02128,-0.1407 -0.0528,-0.2848 -0.07006,-0.3199 -0.01726,-0.036 -0.03853,-0.2944 -0.04727,-0.5759 -0.0088,-0.2816 -0.0434,-0.6703 -0.07703,-0.864 -0.03363,-0.1935 -0.06911,-0.5822 -0.07884,-0.8638 -0.0097,-0.2815 -0.04232,-0.6703 -0.07241,-0.8639 -0.03009,-0.1936 -0.06809,-0.568 -0.08442,-0.8319 -0.01634,-0.2639 -0.05577,-0.595 -0.08764,-0.7358 -0.03186,-0.1408 -0.07471,-0.7023 -0.09521,-1.2478 -0.03006,-0.7998 -0.107853,-1.4379 -0.193516,-1.5874 -0.0062,-0.012 -0.22417,0.126 -0.484422,0.304 -0.260254,0.1779 -0.496682,0.3235 -0.525397,0.3235 -0.06938,0 -0.818437,0.6765 -1.038588,0.938 -0.09575,0.1141 -0.300993,0.2824 -0.456106,0.3748 -0.294834,0.1758 -0.423364,0.287 -0.331544,0.287 0.138693,0 1.163366,1.4102 1.363455,1.8764 0.06307,0.147 0.184948,0.4112 0.270839,0.5872 0.287376,0.5887 0.38353,1.0669 0.39251,1.9517 0.0076,0.7528 -5.47e-4,0.8206 -0.138488,1.1518 -0.08138,0.1954 -0.344319,0.6011 -0.59097,0.9119 -0.438841,0.553 -0.447577,0.5599 -0.702659,0.5599 -0.213938,0 -0.285231,-0.032 -0.415145,-0.1871 z m 7.9189,-0.4977 c -0.29957,-0.09 -0.398692,-0.5488 -0.187808,-0.8685 0.05902,-0.09 0.107322,-0.1805 0.107322,-0.2022 0,-0.058 -0.223843,-0.1501 -0.718919,-0.2989 -0.534732,-0.1607 -0.732973,-0.2657 -1.084452,-0.5748 -0.658989,-0.5795 -0.874356,-1.2681 -0.667374,-2.1338 0.0882,-0.3688 0.393742,-0.7701 0.634422,-0.8331 0.216801,-0.057 0.196689,-0.2192 -0.0513,-0.4143 -0.33736,-0.2655 -0.478973,-0.8527 -0.313338,-1.2992 0.218124,-0.588 0.53662,-0.7712 1.336419,-0.7686 0.318764,0 0.625578,0.032 0.68181,0.07 0.05623,0.037 0.235048,0.096 0.397367,0.1311 0.645359,0.1384 0.834015,0.207 1.149702,0.4175 0.412001,0.2748 0.52223,0.4145 0.736111,0.9329 0.108948,0.264 0.12494,1.3669 0.02418,1.6672 -0.04707,0.1403 -0.08557,0.2689 -0.08557,0.2857 0,0.083 0.170227,0.014 0.27974,-0.1129 0.068,-0.08 0.243726,-0.2591 0.390498,-0.3999 0.48824,-0.4683 0.87925,-0.9381 0.851818,-1.0233 -0.01486,-0.046 -0.0676,-0.1014 -0.117206,-0.1238 -0.417074,-0.1846 -0.662594,-0.5469 -0.695999,-1.0273 -0.04913,-0.7066 0.348672,-1.1175 1.00297,-1.0359 0.304585,0.038 0.738836,0.2653 0.947781,0.4963 0.06093,0.067 0.124666,0.1224 0.141639,0.1224 0.01698,0 0.124078,-0.1003 0.23801,-0.2219 0.24695,-0.2643 0.656086,-0.5291 0.931975,-0.603 0.168778,-0.045 0.251406,-0.023 0.537584,0.1457 0.378376,0.2229 0.395364,0.2609 0.392472,0.8784 -0.0017,0.3689 -0.02196,0.4531 -0.157689,0.6563 -0.08564,0.1282 -0.264368,0.3243 -0.397175,0.4358 -0.132807,0.1118 -0.251612,0.2122 -0.26401,0.2238 -0.0124,0.012 0.15663,0.2472 0.375617,0.5236 0.702132,0.8862 0.907715,1.1888 0.90782,1.3368 5.3e-5,0.08 0.02425,0.1439 0.05377,0.1439 0.07853,0 0.06607,0.4953 -0.01342,0.5335 -0.04678,0.022 -0.04327,0.034 0.01159,0.037 0.04328,0 -0.05332,0.1072 -0.214637,0.233 -0.323406,0.2512 -0.525803,0.2636 -0.795344,0.048 -0.07804,-0.062 -0.157623,-0.1072 -0.176854,-0.1015 -0.01923,0.012 -0.07713,-0.094 -0.128666,-0.2256 -0.05154,-0.1308 -0.108463,-0.2523 -0.126515,-0.2699 -0.01805,-0.017 -0.09846,-0.1529 -0.178689,-0.3005 -0.137974,-0.2539 -0.67043,-0.8332 -0.901263,-0.9805 -0.08506,-0.054 -0.154797,-0.032 -0.350183,0.1107 -0.134188,0.098 -0.290991,0.2069 -0.348453,0.2416 -0.05746,0.034 -0.104475,0.085 -0.104475,0.1117 0,0.027 -0.02637,0.049 -0.05861,0.049 -0.03224,0 -0.113949,0.051 -0.181598,0.1117 -0.06764,0.061 -0.168038,0.1484 -0.223102,0.1927 -0.773384,0.6231 -2.293787,2.2651 -2.622648,2.8326 -0.390762,0.6742 -0.685715,0.9338 -0.965331,0.8494 z m -0.462646,-3.7067 c 0.09679,-0.081 0.207846,-0.097 0.496749,-0.073 0.457773,0.039 0.47889,0.012 0.51691,-0.7883 l 0.02661,-0.5568 -0.27804,-0.071 c -0.344545,-0.088 -0.524737,-0.09 -0.567887,-0.012 -0.01824,0.036 -0.146435,0.066 -0.284878,0.068 -0.285893,0 -0.747355,0.086 -0.792905,0.1404 -0.01671,0.02 0.0801,0.1577 0.215153,0.3061 0.15565,0.171 0.245547,0.3241 0.245547,0.4179 0,0.082 0.02415,0.166 0.05366,0.1876 0.02952,0.022 0.05366,0.1387 0.05366,0.2598 0,0.2523 0.105755,0.2911 0.315416,0.1161 z"
       id="path3149"
       inkscape:connector-curvature="0" />
    <g
       id="g3728"
       transform="matrix(4.0939311,0,0,4.0939311,-1.0779903,-3253.5033)">
      <path
         sodipodi:nodetypes="ccccscccccccccsccccccccccsscsscccccscscscccscsccccscccccsccscssscccscccsscccccc"
         inkscape:connector-curvature="0"
         id="path3189"
         d="m 17.743609,1023.8361 c -1.157368,0.01 -2.177223,0.058 -2.3125,0.094 -0.132807,0.035 -0.471366,0.1145 -0.78125,0.1875 -0.309883,0.073 -0.679693,0.1647 -0.8125,0.2187 -0.38539,0.1577 -3.77017,1.5691 -5.1562499,2.4063 -0.0609,0.037 -0.166198,0.091 -0.21875,0.125 -0.682329,0.2891 -1.53644,0.7536 -2.125,1.0312 -0.425376,0.2006 -1.247196,0.9845 -1.375,1.1563 -0.01476,0.02 -0.250879,0.2449 -0.53125,0.5312 -0.280371,0.2862 -0.678505,0.7551 -0.90625,1.0313 -0.227747,0.2763 -0.639006,0.7224 -0.90625,0.9687 -0.737666,0.6801 -1.127523,1.2665 -1.28125,2.0313 -0.169151,0.8416 -0.04545,1.8713 0.3125,2.75 0.112152,0.2753 0.23102,0.5849 0.25,0.6875 0.01897,0.1033 0.03853,0.1875 0.0625,0.1875 0.02397,0 0.07345,0.059 0.09375,0.1562 0.02029,0.096 0.04271,0.2018 0.0625,0.2188 0.0198,0.018 0.09878,0.1467 0.15625,0.2812 0.11507,0.2695 0.668242,1.3271 0.90625,1.7188 0.08315,0.1369 0.289936,0.3605 0.4375,0.5 0.147564,0.1396 0.345054,0.3628 0.46875,0.5 0.3674071,0.3299 0.7344943,0.6576 1.09375,1 0.7208045,0.5221 1.5118615,0.7565 2.3125,1.2185 -0.27563,0.4671 -0.69064,0.9713 -1.84375,2.2813 -3.350406,4.2324 -1.571999,4.3767 2.59375,3.1875 0.0498,-0.032 0.318914,-0.1135 0.59375,-0.1875 0.274834,-0.074 0.54851,-0.1585 0.59375,-0.1875 0.04524,-0.029 0.15306,-0.069 0.25,-0.094 0.09694,-0.025 0.26458,-0.1062 0.3437499,-0.1562 0.07917,-0.05 0.17301,-0.094 0.21875,-0.094 0.04574,0 0.09696,-2e-4 0.125,-0.031 2.106913,-0.7201 4.421777,-1.8648 6.5,-2 0.147562,-0.038 0.687521,-0.075 1.21875,-0.094 1.007858,-0.036 1.411664,-0.062 1.90625,-0.1562 0.535916,-0.1019 1.403944,-0.3708 1.53125,-0.4688 0.03233,-0.025 0.157983,-0.071 0.28125,-0.094 0.123268,-0.023 0.23415,-0.064 0.25,-0.094 0.01584,-0.03 0.08732,-0.062 0.15625,-0.062 0.183868,0 0.84957,-0.2388 0.9375,-0.3437 0.0416,-0.05 0.09254,-0.094 0.125,-0.094 0.03246,0 0.10965,-0.046 0.15625,-0.094 0.04659,-0.048 0.278654,-0.1833 0.5,-0.2813 0.221346,-0.099 0.559333,-0.2575 0.75,-0.375 0.190669,-0.1168 0.36551,-0.2187 0.40625,-0.2187 0.09045,0 1.02621,-0.5723 1.125,-0.6875 0.039,-0.046 0.09804,-0.094 0.125,-0.094 0.06504,0 0.58789,-0.3717 0.65625,-0.4687 0.363199,-0.5174 0.608318,-0.7988 0.90625,-1.0625 0.348415,-0.3084 0.953035,-1.0473 1.21875,-1.4688 0.07378,-0.1171 0.229478,-0.3382 0.34375,-0.5 0.210757,-0.2984 0.40625,-0.771 0.40625,-0.9687 0,-0.06 0.05286,-0.1498 0.09375,-0.2188 0.141244,-0.2404 0.30636,-1.1397 0.40625,-2.0937 0.04966,-0.4744 0.04847,-0.6447 -0.03125,-1.0938 -0.09949,-0.5603 -0.379904,-1.2999 -0.53125,-1.4375 -0.01945,-0.018 -0.07248,-0.1854 -0.125,-0.3437 -0.05252,-0.1583 -0.259364,-0.5953 -0.46875,-1 -0.209384,-0.4047 -0.42928,-0.8593 -0.46875,-1 -0.03947,-0.1409 -0.15027,-0.4268 -0.25,-0.625 -0.09972,-0.1981 -0.1875,-0.3753 -0.1875,-0.4063 0,-0.032 -0.0842,-0.2191 -0.1875,-0.4062 -0.103299,-0.187 -0.1875,-0.3743 -0.1875,-0.4063 0,-0.033 -0.0017,-0.062 -0.03125,-0.062 -0.02951,0 -0.0625,-0.015 -0.0625,-0.062 0,-0.047 -0.133728,-0.2335 -0.28125,-0.4062 -0.147519,-0.1726 -0.249956,-0.349 -0.25,-0.375 -2.39e-4,-0.145 -0.503774,-0.7256 -0.8125,-0.9375 -0.07691,-0.053 -0.260015,-0.2408 -0.40625,-0.4063 -0.146236,-0.1655 -0.370946,-0.3595 -0.5,-0.4375 -0.129055,-0.079 -0.2665,-0.1675 -0.28125,-0.1875 -0.0363,-0.048 -0.699281,-0.5718 -1.03125,-0.8125 -0.326571,-0.2367 -0.766075,-0.4687 -0.875,-0.4687 -0.04415,0 -0.07551,-0.028 -0.09375,-0.063 -0.01824,-0.035 -0.09159,-0.062 -0.15625,-0.062 -0.06466,0 -0.1701,-0.044 -0.25,-0.094 -0.07991,-0.05 -0.416731,-0.1295 -0.75,-0.1875 -1.074708,-0.1863 -1.267054,-0.2327 -1.8125,-0.375 -0.504266,-0.1305 -0.652328,-0.137 -2.59375,-0.125 z"
         style="fill:#000000" />
      <path
         inkscape:connector-curvature="0"
         id="path3185"
         d="m 11.303291,1040.3747 c -0.203785,-0.2431 -0.206785,-0.5181 -0.0094,-0.8654 0.08108,-0.1426 0.162497,-0.2738 0.180934,-0.2914 0.01844,-0.017 0.145275,-0.1887 0.281863,-0.3801 l 0.248341,-0.3481 0,-0.6096 c 0,-0.6502 -0.08179,-1.0318 -0.296226,-1.3818 -0.06469,-0.106 -0.134617,-0.2561 -0.155408,-0.3346 -0.02079,-0.078 -0.295916,-0.4537 -0.611389,-0.8339 -0.709536,-0.8553 -0.794608,-0.8935 -2.0661639,-0.9269 l -0.84866,-0.022 -0.03023,0.1804 c -0.01663,0.099 -0.05126,0.1957 -0.07696,0.2147 -0.07798,0.058 -0.05232,0.7183 0.04111,1.0589 0.121371,0.4425 0.231818,0.5126 0.804128,0.51 l 0.470737,0 0.19526,-0.242 c 0.29598,-0.367 0.476182,-0.5274 0.512933,-0.4564 0.01798,0.035 0.06799,0.047 0.1111369,0.028 0.09008,-0.042 0.341208,0.099 0.445157,0.248 0.109789,0.1578 0.165174,0.6157 0.102851,0.8503 -0.124299,0.4682 -0.8005269,1.0196 -1.4153869,1.1543 -0.351531,0.077 -0.949016,0.061 -1.28887,-0.034 -0.281056,-0.078 -0.645652,-0.3553 -0.899071,-0.6826 -0.189651,-0.245 -0.512865,-0.9569 -0.598105,-1.3176 -0.0208,-0.088 -0.05887,-0.2174 -0.0846,-0.2879 -0.118255,-0.3236 -0.246778,-1.6645 -0.165291,-1.7246 0.03181,-0.023 0.05782,-0.086 0.05782,-0.139 0,-0.2864 0.469301,-1.1759 0.620395,-1.1759 0.03753,0 0.07709,-0.031 0.08791,-0.07 0.0315,-0.1129 0.659545,-0.088 0.802783,0.032 0.154425,0.1289 0.252367,0.1288 0.470092,0 0.23176,-0.1379 1.186402,-0.098 1.426196,0.06 0.08854,0.059 0.1972,0.1072 0.241469,0.1083 0.04427,0 0.12736,0.045 0.1846489,0.097 0.127231,0.1153 0.352069,0.1237 0.351615,0.014 -1.66e-4,-0.044 -0.03476,-0.1587 -0.07684,-0.255 -0.04208,-0.096 -0.05506,-0.1906 -0.02885,-0.2099 0.02622,-0.02 0.03371,-0.078 0.01666,-0.1315 -0.04036,-0.1254 0.12543,-0.6442 0.287732,-0.9004 0.149317,-0.2357 0.509561,-0.5345 0.645604,-0.5357 0.05228,0 0.232687,-0.084 0.400906,-0.1859 0.168218,-0.1014 0.403523,-0.2047 0.522899,-0.2286 0.119376,-0.024 0.229373,-0.068 0.244439,-0.097 0.01506,-0.029 0.12783,-0.073 0.250588,-0.098 0.122759,-0.025 0.323641,-0.1084 0.446407,-0.1865 0.291408,-0.1849 0.732874,-0.3554 0.922871,-0.3566 0.08299,0 0.247484,-0.043 0.365534,-0.093 0.267746,-0.1153 2.138273,-0.1337 2.626084,-0.027 0.48589,0.1072 1.168303,0.3687 1.282165,0.4917 0.269484,0.2908 0.332472,0.8095 0.129626,1.0676 -0.276368,0.3516 -0.604154,0.3703 -1.136671,0.064 -0.379799,-0.2178 -0.408157,-0.2239 -1.037697,-0.2239 -0.701399,0 -0.714996,0.012 -0.670073,0.3585 0.01854,0.1451 -0.0268,0.316 -0.168211,0.6337 -0.192798,0.4332 -0.19351,0.4378 -0.170545,1.0929 0.01269,0.3618 0.04868,0.7149 0.08,0.7847 0.03131,0.069 0.107057,0.4946 0.168336,0.9442 0.06128,0.4496 0.132577,0.8646 0.158451,0.9223 0.02587,0.058 0.06371,0.261 0.08409,0.4519 0.02038,0.1908 0.05458,0.3757 0.07602,0.411 0.02144,0.036 0.05466,0.1625 0.07384,0.2829 0.01919,0.1203 0.131242,0.3711 0.249019,0.5571 0.117777,0.1861 0.21414,0.3555 0.21414,0.3766 0,0.033 0.07318,0.2425 0.268035,0.7671 0.09018,0.2427 0.159211,0.7959 0.125479,1.0056 -0.0339,0.2106 -0.175639,0.4943 -0.352251,0.7048 -0.121742,0.1452 -0.520523,0.2513 -0.748553,0.1991 -0.298318,-0.068 -0.643459,-0.3903 -0.714689,-0.6666 -0.02198,-0.085 -0.059,-0.184 -0.08226,-0.2191 -0.02326,-0.036 -0.0597,-0.1793 -0.08096,-0.32 -0.02128,-0.1407 -0.0528,-0.2848 -0.07006,-0.3199 -0.01726,-0.036 -0.03853,-0.2944 -0.04727,-0.5759 -0.0088,-0.2816 -0.0434,-0.6703 -0.07703,-0.864 -0.03363,-0.1935 -0.06911,-0.5822 -0.07884,-0.8638 -0.0097,-0.2815 -0.04232,-0.6703 -0.07241,-0.8639 -0.03009,-0.1936 -0.06809,-0.568 -0.08442,-0.8319 -0.01634,-0.2639 -0.05577,-0.595 -0.08764,-0.7358 -0.03186,-0.1408 -0.07471,-0.7023 -0.09521,-1.2478 -0.03006,-0.7998 -0.107853,-1.4379 -0.193516,-1.5874 -0.0062,-0.012 -0.22417,0.126 -0.484422,0.304 -0.260254,0.1779 -0.496682,0.3235 -0.525397,0.3235 -0.06938,0 -0.818437,0.6765 -1.038588,0.938 -0.09575,0.1141 -0.300993,0.2824 -0.456106,0.3748 -0.294833,0.1758 -0.423363,0.287 -0.331543,0.287 0.138693,0 1.163365,1.4102 1.363454,1.8764 0.06307,0.147 0.184948,0.4112 0.270839,0.5872 0.287376,0.5887 0.38353,1.0669 0.39251,1.9517 0.0076,0.7528 -5.47e-4,0.8206 -0.138488,1.1518 -0.08138,0.1954 -0.344319,0.6011 -0.59097,0.9119 -0.438841,0.553 -0.447577,0.5599 -0.702659,0.5599 -0.213938,0 -0.285231,-0.032 -0.415145,-0.1871 z"
         style="fill:#ffffff" />
      <path
         inkscape:connector-curvature="0"
         id="path3183"
         d="m 25.377538,1032.037 c -0.07753,-0.021 -0.134361,0.01 -0.21875,0.031 -0.275889,0.074 -0.69055,0.3294 -0.9375,0.5937 -0.113932,0.1216 -0.23302,0.2188 -0.25,0.2188 -0.01697,0 -0.06407,-0.058 -0.125,-0.125 -0.208945,-0.231 -0.664165,-0.462 -0.96875,-0.5 -0.654298,-0.082 -1.04913,0.3246 -1,1.0312 0.03341,0.4804 0.301676,0.8467 0.71875,1.0313 0.04961,0.022 0.07889,0.079 0.09375,0.125 0.02743,0.085 -0.35551,0.5629 -0.84375,1.0312 -0.146772,0.1408 -0.307,0.3263 -0.375,0.4063 -0.109513,0.1269 -0.28125,0.1767 -0.28125,0.094 0,-0.017 0.01543,-0.1409 0.0625,-0.2812 0.10076,-0.3003 0.108948,-1.3923 0,-1.6563 -0.213881,-0.5184 -0.337999,-0.6627 -0.75,-0.9375 -0.315687,-0.2105 -0.510891,-0.2678 -1.15625,-0.4062 -0.162319,-0.035 -0.31877,-0.088 -0.375,-0.125 -0.05623,-0.038 -0.368736,-0.094 -0.6875,-0.094 -0.799799,0 -1.125626,0.1933 -1.34375,0.7813 -0.165635,0.4465 -0.02486,1.0157 0.3125,1.2812 0.247989,0.1951 0.279301,0.3805 0.0625,0.4375 -0.24068,0.063 -0.56805,0.4437 -0.65625,0.8125 -0.206982,0.8657 0.02851,1.5768 0.6875,2.1563 0.351479,0.3091 0.527768,0.4018 1.0625,0.5625 0.495076,0.1488 0.71875,0.2545 0.71875,0.3125 0,0.022 -0.03473,0.098 -0.09375,0.1875 -0.210884,0.3197 -0.11207,0.785 0.1875,0.875 0.279616,0.084 0.577988,-0.1696 0.96875,-0.8438 0.328861,-0.5675 1.851616,-2.2206 2.625,-2.8437 0.05506,-0.044 0.15111,-0.1265 0.21875,-0.1875 0.06765,-0.061 0.15526,-0.125 0.1875,-0.125 0.03224,0 0.0625,0 0.0625,-0.031 0,-0.027 0.03629,-0.091 0.09375,-0.125 0.05746,-0.035 0.209562,-0.152 0.34375,-0.25 0.195386,-0.1427 0.25869,-0.1477 0.34375,-0.094 0.230833,0.1473 0.768276,0.7148 0.90625,0.9687 0.08023,0.1476 0.16945,0.2955 0.1875,0.3125 0.01805,0.018 0.07346,0.1192 0.125,0.25 0.05154,0.1316 0.10577,0.262 0.125,0.25 0.01923,-0.01 0.10946,0.032 0.1875,0.094 0.269541,0.2156 0.457844,0.1887 0.78125,-0.062 0.161317,-0.1258 0.26203,-0.2188 0.21875,-0.2188 0.0054,0 -0.0117,-0.026 0,-0.031 0.07949,-0.038 0.07853,-0.5313 0,-0.5313 -0.02952,0 -0.06245,-0.076 -0.0625,-0.1562 -1.05e-4,-0.148 -0.204118,-0.4576 -0.90625,-1.3438 -0.218987,-0.2764 -0.3874,-0.488 -0.375,-0.5 0.0124,-0.012 0.148443,-0.1382 0.28125,-0.25 0.132807,-0.1115 0.28936,-0.3093 0.375,-0.4375 0.135729,-0.2032 0.1858,-0.2873 0.1875,-0.6562 0.0029,-0.6175 -0.02787,-0.6521 -0.40625,-0.875 -0.143089,-0.084 -0.234974,-0.1353 -0.3125,-0.1563 z m -6.25,2.5625 c 0.09351,0 0.233978,0.05 0.40625,0.094 l 0.28125,0.062 -0.03125,0.5625 c -0.03802,0.8003 -0.07348,0.8202 -0.53125,0.7812 -0.288903,-0.024 -0.40321,-0.019 -0.5,0.062 -0.209661,0.175 -0.3125,0.1273 -0.3125,-0.125 0,-0.1211 -0.03298,-0.228 -0.0625,-0.25 -0.02951,-0.022 -0.03125,-0.1055 -0.03125,-0.1875 0,-0.094 -0.09435,-0.2352 -0.25,-0.4062 -0.135053,-0.1484 -0.23546,-0.2925 -0.21875,-0.3125 0.04555,-0.054 0.495357,-0.1563 0.78125,-0.1563 0.138443,0 0.26301,-0.026 0.28125,-0.062 0.02157,-0.039 0.09399,-0.064 0.1875,-0.062 z"
         style="fill:#ffffff" />
    </g>
  </g>
</svg>
