<?xml version="1.0" encoding="UTF-8" standalone="no"?>
<!-- Created with Inkscape (http://www.inkscape.org/) -->

<svg
   xmlns:dc="http://purl.org/dc/elements/1.1/"
   xmlns:cc="http://creativecommons.org/ns#"
   xmlns:rdf="http://www.w3.org/1999/02/22-rdf-syntax-ns#"
   xmlns:svg="http://www.w3.org/2000/svg"
   xmlns="http://www.w3.org/2000/svg"
   xmlns:sodipodi="http://sodipodi.sourceforge.net/DTD/sodipodi-0.dtd"
   xmlns:inkscape="http://www.inkscape.org/namespaces/inkscape"
   width="24"
   height="24"
   id="svg6930"
   version="1.1"
   inkscape:version="0.48.5 r10040"
   sodipodi:docname="status_online.svg">
  <defs
     id="defs6932" />
  <sodipodi:namedview
     id="base"
     pagecolor="#ffffff"
     bordercolor="#666666"
     borderopacity="1.0"
     inkscape:pageopacity="0.0"
     inkscape:pageshadow="2"
     inkscape:zoom="22.4"
     inkscape:cx="-4.7555362"
     inkscape:cy="14.980978"
     inkscape:document-units="px"
     inkscape:current-layer="layer1"
     showgrid="false"
     inkscape:window-width="1918"
     inkscape:window-height="1568"
     inkscape:window-x="1600"
     inkscape:window-y="410"
     inkscape:window-maximized="0" />
  <metadata
     id="metadata6935">
    <rdf:RDF>
      <cc:Work
         rdf:about="">
        <dc:format>image/svg+xml</dc:format>
        <dc:type
           rdf:resource="http://purl.org/dc/dcmitype/StillImage" />
        <dc:title />
      </cc:Work>
    </rdf:RDF>
  </metadata>
  <g
     inkscape:label="Ebene 1"
     inkscape:groupmode="layer"
     id="layer1"
     transform="translate(0,-1028.3622)">
    <path
       style="fill:#00ff00;fill-opacity:1;stroke:none;stroke-opacity:1"
       d="M 12 2.09375 C 6.5344032 2.09375 2.09375 6.5344032 2.09375 12 C 2.09375 17.465597 6.5344032 21.90625 12 21.90625 C 17.465597 21.90625 21.90625 17.465597 21.90625 12 C 21.90625 6.5344032 17.465597 2.09375 12 2.09375 z M 12 4.1875 C 16.306228 4.1875 19.8125 7.6937722 19.8125 12 C 19.8125 16.306228 16.306228 19.8125 12 19.8125 C 7.6937722 19.8125 4.1875 16.306228 4.1875 12 C 4.1875 7.6937722 7.6937722 4.1875 12 4.1875 z "
       transform="translate(0,1028.3622)"
       id="path6938" />
    <path
       sodipodi:type="arc"
       style="fill:#00ff00;fill-opacity:1;stroke:none"
       id="path7572"
       sodipodi:cx="-9.9553576"
       sodipodi:cy="2.6160715"
       sodipodi:rx="7.1428571"
       sodipodi:ry="7.1428571"
       d="m -2.8125005,2.6160715 a 7.1428571,7.1428571 0 1 1 -14.2857145,0 7.1428571,7.1428571 0 1 1 14.2857145,0 z"
       transform="matrix(1.153125,0,0,1.153125,23.479772,1037.3455)" />
  </g>
</svg>
